<svg xmlns="http://www.w3.org/2000/svg" style="display:none">
  <symbol id="icon-antenna" viewBox="0 0 64 64">
    <path d="M61.5463 44.1952L44.6599 27.1851L46.534 17.9541C47.0176 18.1429 47.5318 18.2416 48.0508 18.2453H48.0636C50.4482 18.2735 52.404 16.3633 52.4323 13.9788C52.4606 11.5943 50.5503 9.6384 48.1658 9.61013C45.7812 9.582 43.8254 11.4921 43.7971 13.8767C43.7911 14.3869 43.8755 14.8941 44.0466 15.3749L34.1266 16.5856L17.9452 0.32C17.7467 0.117467 17.4757 0.00226667 17.1921 0C16.9121 0.00146667 16.644 0.112933 16.4455 0.3104L13.4204 3.3184C13.004 3.73493 13.004 4.41013 13.4204 4.82667L15.0481 6.47787C8.74201 18.0737 10.7903 32.4335 20.0871 41.8037C20.1724 41.8853 20.2713 41.9513 20.3793 41.9989C20.3121 42.3599 20.2771 42.7261 20.2748 43.0933V55.4667H7.47481C4.53081 55.4701 2.14495 57.856 2.14148 60.8V62.9333C2.14148 63.5224 2.61908 64 3.20815 64H52.2748C52.8639 64 53.3415 63.5224 53.3415 62.9333V60.8C53.338 57.856 50.9522 55.4701 48.0082 55.4667H35.2082V49.9829C37.2134 50.4035 39.2564 50.6179 41.3052 50.6229C46.2215 50.6176 51.0595 49.392 55.3852 47.056L57.0215 48.7019C57.22 48.9044 57.491 49.0196 57.7746 49.0219C58.0546 49.0204 58.3227 48.9089 58.5212 48.7115L61.5463 45.7035C61.9627 45.2869 61.9627 44.6117 61.5463 44.1952Z" fill="#2E2F42"/>
    <path d="M27.7511 40.5333H27.7415C25.9742 40.5307 24.5394 41.9612 24.5367 43.7285C24.534 45.4959 25.9646 46.9307 27.7319 46.9333H27.7415C29.5088 46.936 30.9436 45.5055 30.9463 43.7381C30.9489 41.9708 29.5184 40.536 27.7511 40.5333Z" fill="#4D5AE5"/>
  </symbol>

  <symbol id="icon-clock" viewBox="0 0 64 64">
    <path d="M62.5933 30.6025C62.5899 13.6978 48.8828 -0.00341734 31.9776 6.39362e-07C15.0728 0.00341861 1.37161 13.7109 1.37502 30.6157C1.37795 43.9316 9.98879 55.7178 22.6739 59.7681C22.7949 59.8062 22.9209 59.8257 23.0474 59.8252C23.2886 59.8247 23.5249 59.7603 23.7324 59.6377C24.0025 59.478 24.2041 59.2241 24.2989 58.9248L32.0288 34.4248C34.1421 34.4141 35.8462 32.6919 35.835 30.5791C35.8242 28.4658 34.1026 26.7617 31.9893 26.7725C31.4209 26.7749 30.8599 26.9058 30.3491 27.1553L20.1372 16.9419C19.6304 16.4526 18.8233 16.4668 18.334 16.9731C17.8565 17.4678 17.8565 18.251 18.334 18.7456L28.5406 28.9639C27.7574 30.5625 28.2051 32.4922 29.6133 33.582L22.2481 56.9277C7.69241 51.5659 0.239281 35.4199 5.6011 20.8643C10.9629 6.30859 27.1089 -1.14453 41.6646 4.21729C56.2202 9.5791 63.6734 25.7256 58.3116 40.2808C55.6919 47.3921 50.3096 53.1431 43.3872 56.2275L42.5913 52.479C42.4458 51.79 41.7686 51.3496 41.0796 51.4956C40.8623 51.542 40.6607 51.6441 40.4947 51.792L32.8208 58.6431C32.2945 59.1113 32.2476 59.9175 32.7163 60.4439C32.8687 60.6148 33.064 60.7417 33.2827 60.8115L43.0801 63.9385C43.7505 64.1538 44.4688 63.7852 44.6841 63.1143C44.7525 62.9024 44.7637 62.6768 44.7178 62.459L43.9356 58.7808C55.2642 54.0049 62.6197 42.8965 62.5933 30.6025Z" fill="#2E2F42"/>
    <path d="M30.709 6.37011V8.92089C30.709 9.62548 31.2798 10.1963 31.9844 10.1963C32.6885 10.1963 33.2598 9.62548 33.2598 8.92089V6.37011C33.2598 5.66601 32.6885 5.09472 31.9844 5.09472C31.2798 5.09472 30.709 5.66601 30.709 6.37011Z" fill="#4D5AE5"/>
    <path d="M7.75197 29.3271C7.04738 29.3271 6.47658 29.8984 6.47658 30.6025C6.47658 31.3071 7.04738 31.8779 7.75197 31.8779H10.3028C11.0073 31.8779 11.5781 31.3071 11.5781 30.6025C11.5781 29.8984 11.0073 29.3271 10.3028 29.3271H7.75197Z" fill="#4D5AE5"/>
    <path d="M56.2163 31.8779C56.9209 31.8779 57.4917 31.3071 57.4917 30.6025C57.4917 29.8984 56.9209 29.3271 56.2163 29.3271H53.6655C52.9614 29.3271 52.3901 29.8984 52.3901 30.6025C52.3901 31.3071 52.9614 31.8779 53.6655 31.8779H56.2163Z" fill="#4D5AE5"/>
  </symbol>

  <symbol id="icon-diagram" viewBox="0 0 64 64">
    <path d="M3.19833 56.5819H54.3715C56.1378 56.5819 57.5699 55.1499 57.5699 53.3836V49.1192C57.5699 47.3529 56.1378 45.9208 54.3715 45.9208H53.3054V19.3342L59.3611 13.5976C60.7666 14.2905 62.4678 13.8699 63.3876 12.6003C64.308 11.3311 64.1789 9.58361 63.0826 8.46336C61.9863 7.34311 60.2424 7.17601 58.953 8.06773C57.6641 8.95997 57.206 10.6513 57.8681 12.0719L53.3054 16.3972V13.9376C53.3054 12.1713 51.8734 10.7393 50.1071 10.7393H7.46276C5.6965 10.7393 4.26443 12.1713 4.26443 13.9376V45.9208H3.19833C1.43206 45.9208 0 47.3529 0 49.1192V53.3836C0 55.1499 1.43206 56.5819 3.19833 56.5819Z" fill="#2E2F42"/>
  </symbol>

  <symbol id="icon-astronaut" viewBox="0 0 64 64">
    <path d="M63.9481 9.04812C63.8222 8.66299 63.4894 8.38149 63.0873 8.32274L59.2665 7.76698L57.5566 4.30455C57.1982 3.57492 56.0025 3.57492 55.6441 4.30455L53.9342 7.76698L50.1132 8.32286C49.7111 8.38149 49.3784 8.66212 49.2514 9.04825C49.1266 9.43438 49.23 9.85889 49.5212 10.1416L52.2872 12.8372L51.6344 16.6431C51.5661 17.0431 51.7304 17.4474 52.0579 17.6864C52.3897 17.9275 52.8227 17.9573 53.1822 17.7674L56.5998 15.97L60.0175 17.7674C60.3764 17.9573 60.8094 17.9275 61.1419 17.6863C61.4704 17.4474 61.6347 17.043 61.5654 16.643L60.9127 12.8371L63.6786 10.1415C63.9683 9.85776 64.073 9.43425 63.9481 9.04812Z" fill="#4D5AE5"/>
    <path d="M49.4295 28.3189C48.8546 27.5434 48.0109 27.0443 47.053 26.9098C46.0908 26.7733 45.1414 27.026 44.3734 27.6138L41.8699 29.5327L38.0734 32.368L35.3577 31.2863C40.2004 29.1135 43.585 24.2697 43.585 18.6461C43.585 11.0001 37.3396 4.7793 29.6627 4.7793C21.9858 4.7793 15.7405 11.0001 15.7405 18.6461C15.7405 21.4174 16.5692 23.9945 17.9805 26.163L12.4529 26.115C12.0093 26.2131 11.9709 26.2259 5.50468 29.4184L1.71575 31.2405C0.0804746 32.3156 -0.433659 34.289 0.393104 35.9018C0.833611 36.7594 1.5835 37.3909 2.50514 37.6799C3.58353 37.8453 4.16279 37.8453 5.26243 37.4229L8.03798 35.9467L12.566 33.6085L15.2797 33.5925L4.39629 44.4237L1.71563 47.0924C0.73536 48.557 0.73536 49.4477 1.71563 51.8051C2.36526 52.4515 3.21965 52.7758 4.07404 52.7758C4.92955 52.7758 5.78281 52.4515 6.43457 51.8051L9.06287 49.1875L12.5445 46.5879L14.3462 48.3821L10.8229 51.8904L8.14223 54.5592C7.16196 56.0237 7.16196 56.9145 8.14223 59.2719C8.79186 59.9183 9.64738 60.2425 10.5018 60.2425C11.3562 60.2425 12.2117 59.9183 12.8623 59.2719L19.8255 52.3385L21.8469 50.3352L32.2151 38.9804L39.1571 39.9682C39.6819 39.9021 39.7811 39.8552 46.3231 35.5341L49.0056 33.0424C50.3288 31.8026 50.5111 29.7717 49.4295 28.3189Z" fill="#2E2F42"/>
  </symbol>

  <symbol id="icon-instagram" viewBox="0 0 16 16">
    <path d="M15.9843 4.7039C15.9468 3.8538 15.8093 3.2693 15.6124 2.7629C15.4092 2.2253 15.0966 1.744 14.6871 1.3439C14.287 0.9376 13.8026 0.6218 13.2712 0.4218C12.7618 0.2249 12.1804 0.0874 11.3303 0.0499C10.4738 0.0093 10.2019 0 8.0296 0C5.8573 0 5.5854 0.0093 4.7321 0.0468C3.8819 0.0842 3.2975 0.2218 2.7912 0.4187C2.2535 0.6218 1.7722 0.9344 1.3721 1.3439C0.9657 1.744 0.6501 2.2285 0.45 2.7598C0.2531 3.2693 0.1156 3.8506 0.0781 4.7007C0.0374 5.5572 0.028 5.8291 0.028 8.0014C0.028 10.1737 0.0374 10.4456 0.0749 11.299C0.1124 12.1491 0.25 12.7336 0.447 13.24C0.6501 13.7776 0.9657 14.2589 1.3721 14.659C1.7722 15.0653 2.2566 15.3811 2.788 15.581C3.2975 15.778 3.8788 15.9155 4.729 15.9529C5.5822 15.9906 5.8543 15.9998 8.0265 15.9998C10.1988 15.9998 10.4707 15.9906 11.3241 15.9529C12.1742 15.9155 12.7587 15.778 13.265 15.581C14.3403 15.1653 15.1904 14.3152 15.6061 13.24C15.803 12.7305 15.9406 12.1491 15.978 11.299C16.0155 10.4456 16.0249 10.1737 16.0249 8.0014C16.0249 5.8291 16.0218 5.5572 15.9843 4.7039ZM3.8912 8.0014C3.8912 5.7322 5.7323 3.8912 8.0014 3.8912C10.2707 3.8912 12.1116 5.7322 12.1116 8.0014C12.1116 10.2707 10.2707 12.1116 8.0014 12.1116C5.7323 12.1116 3.8912 10.2707 3.8912 8.0014ZM13.262 3.7288C12.732 3.7288 12.3024 3.2992 12.3024 2.7692C12.3024 2.2392 12.732 1.8096 13.262 1.8096C13.7919 1.8096 14.2215 2.2392 14.2215 2.7692C14.2215 3.2992 13.7919 3.7288 13.262 3.7288Z" fill="#F4F4FD"/>
    <path d="M8.0014 10.6676C9.4736 10.6676 10.6676 9.4736 10.6676 8.0014C10.6676 6.5292 9.4736 5.3352 8.0014 5.3352C6.5292 5.3352 5.3352 6.5292 5.3352 8.0014C5.3352 9.4736 6.5292 10.6676 8.0014 10.6676Z" fill="#F4F4FD"/>
  </symbol>

  <symbol id="icon-twitter" viewBox="0 0 16 16">
    <path d="M12.6 0.75H15.054L9.694 6.892L16 15.25H11.063L7.196 10.18L2.771 15.25H0.316L6.049 8.68L0 0.75H5.063L8.558 5.383L12.6 0.75ZM11.74 13.778H13.1L4.323 2.145H2.865L11.74 13.778Z" fill="#F4F4FD"/>
  </symbol>

  <symbol id="icon-facebook" viewBox="0 0 16 16">
    <path d="M10.6646 2.6565H12.1253V0.1125C11.8733 0.0779 11.0066 0 9.9973 0C7.8913 0 6.4486 1.3245 6.4486 3.7592V5.9999H4.1246V8.8439H6.4486V15.9999H9.298V8.8445H11.528L11.882 6.0005H9.2973V4.0412C9.298 3.2192 9.5193 2.6565 10.6646 2.6565Z" fill="#F4F4FD"/>
  </symbol>

  <symbol id="icon-linkedin" viewBox="0 0 16 16">
    <path d="M15.9961 15.9999L16.0001 15.9992V10.1312C16.0001 7.2606 15.3821 5.0492 12.0261 5.0492C10.4127 5.0492 9.3301 5.9346 8.8881 6.7739H8.8414V5.3172H5.6594V15.9992H8.9727V10.7099C8.9727 9.3172 9.2367 7.9706 10.9614 7.9706C12.6607 7.9706 12.6861 9.5599 12.6861 10.7992V15.9999H15.9961Z" fill="#F4F4FD"/>
    <path d="M0.2641 5.3178H3.5814V15.9998H0.2641V5.3178Z" fill="#F4F4FD"/>
    <path d="M1.9214 0C0.8607 0 0.0001 0.8605 0.0001 1.9212C0.0001 2.9819 0.8607 3.8605 1.9214 3.8605C2.9821 3.8605 3.8427 2.9819 3.8427 1.9212C3.8421 0.8605 2.9814 0 1.9214 0Z" fill="#F4F4FD"/>
  </symbol>
</svg>